<svg width="16" height="16" viewBox="0 0 16 16" fill="none" xmlns="http://www.w3.org/2000/svg"><path d="M7.383 1.755c.213-.562 1.02-.562 1.234 0l1.38 3.823a.66.66 0 00.618.422h3.391c.627 0 .9.78.407 1.162L12 9.333a.644.644 0 00-.215.728l.882 3.736c.214.6-.48 1.115-1.006.746l-3.278-2.08a.667.667 0 00-.766 0l-3.278 2.08c-.525.369-1.22-.147-1.006-.746l.882-3.736A.645.645 0 004 9.333L1.587 7.162C1.093 6.78 1.368 6 1.993 6h3.392a.66.66 0 00.617-.422l1.38-3.823h0z" stroke="#fff" stroke-width="2" stroke-linecap="round" stroke-linejoin="round"/></svg>